<mxfile host="app.diagrams.net" modified="2022-08-04T02:12:37.867Z" agent="5.0 (Macintosh; Intel Mac OS X 10_15_7) AppleWebKit/537.36 (KHTML, like Gecko) Chrome/103.0.5060.134 Safari/537.36 Edg/103.0.1264.77" etag="sjdDnEN5D1BKpzLez04-" version="20.2.2" type="github" pages="2">
  <diagram id="YPpZaD-wZKxwEW-7mJMc" name="单机部署">
    <mxGraphModel dx="1378" dy="801" grid="0" gridSize="10" guides="1" tooltips="1" connect="1" arrows="1" fold="1" page="1" pageScale="1" pageWidth="2339" pageHeight="3300" math="0" shadow="0">
      <root>
        <mxCell id="0" />
        <mxCell id="1" parent="0" />
        <mxCell id="nMTmoi4ZvUsDvFtxuwQk-10" value="" style="rounded=0;whiteSpace=wrap;html=1;fontSize=14;strokeColor=none;fillColor=#dae8fc;" vertex="1" parent="1">
          <mxGeometry x="537" y="310" width="147" height="419" as="geometry" />
        </mxCell>
        <mxCell id="nMTmoi4ZvUsDvFtxuwQk-7" value="" style="rounded=0;whiteSpace=wrap;html=1;fontSize=14;fillColor=#f5f5f5;fontColor=#333333;strokeColor=none;" vertex="1" parent="1">
          <mxGeometry x="221" y="421" width="278" height="217" as="geometry" />
        </mxCell>
        <mxCell id="S6N38EDpftqvQTbYP7FW-1" value="&lt;font style=&quot;font-size: 14px;&quot;&gt;计算服务&lt;br&gt;机器要求：≥ 16C32G，磁盘空间 ≥ 100G&lt;/font&gt;" style="text;html=1;align=center;verticalAlign=middle;resizable=0;points=[];autosize=1;strokeColor=none;fillColor=none;" vertex="1" parent="1">
          <mxGeometry x="47" y="293" width="271" height="46" as="geometry" />
        </mxCell>
        <mxCell id="S6N38EDpftqvQTbYP7FW-7" value="Spark" style="rounded=1;whiteSpace=wrap;html=1;fontSize=14;" vertex="1" parent="1">
          <mxGeometry x="235.5" y="554" width="249" height="60" as="geometry" />
        </mxCell>
        <mxCell id="S6N38EDpftqvQTbYP7FW-8" value="PythonProject (flow, kernel)" style="rounded=1;whiteSpace=wrap;html=1;fontSize=14;" vertex="1" parent="1">
          <mxGeometry x="235.5" y="456" width="249" height="60" as="geometry" />
        </mxCell>
        <mxCell id="S6N38EDpftqvQTbYP7FW-9" value="BoardService" style="rounded=1;whiteSpace=wrap;html=1;fontSize=14;" vertex="1" parent="1">
          <mxGeometry x="736" y="496" width="135" height="60" as="geometry" />
        </mxCell>
        <mxCell id="S6N38EDpftqvQTbYP7FW-10" value="GatewayService" style="rounded=1;whiteSpace=wrap;html=1;fontSize=14;" vertex="1" parent="1">
          <mxGeometry x="744" y="658.5" width="135" height="60" as="geometry" />
        </mxCell>
        <mxCell id="S6N38EDpftqvQTbYP7FW-13" value="BoardWebsite" style="rounded=1;whiteSpace=wrap;html=1;fontSize=14;" vertex="1" parent="1">
          <mxGeometry x="738" y="421" width="135" height="60" as="geometry" />
        </mxCell>
        <mxCell id="S6N38EDpftqvQTbYP7FW-15" value="系统：CentOS&amp;nbsp;7.5；依赖环境：Python&amp;nbsp;3.7，&amp;nbsp;Java&amp;nbsp;1.8，Spark&amp;nbsp;3.1.3；应用软件：PythonProject（flow、kernel）" style="text;html=1;align=center;verticalAlign=middle;resizable=0;points=[];autosize=1;strokeColor=none;fillColor=none;fontSize=14;" vertex="1" parent="1">
          <mxGeometry x="2376" y="351" width="717" height="29" as="geometry" />
        </mxCell>
        <mxCell id="S6N38EDpftqvQTbYP7FW-16" value="FusionService" style="rounded=1;whiteSpace=wrap;html=1;fontSize=14;" vertex="1" parent="1">
          <mxGeometry x="1060" y="486" width="135" height="60" as="geometry" />
        </mxCell>
        <mxCell id="S6N38EDpftqvQTbYP7FW-17" value="FusionWebsite" style="rounded=1;whiteSpace=wrap;html=1;fontSize=14;" vertex="1" parent="1">
          <mxGeometry x="1062" y="411" width="135" height="60" as="geometry" />
        </mxCell>
        <mxCell id="S6N38EDpftqvQTbYP7FW-33" value="ServingService" style="rounded=1;whiteSpace=wrap;html=1;fontSize=14;" vertex="1" parent="1">
          <mxGeometry x="294" y="869" width="135" height="60" as="geometry" />
        </mxCell>
        <mxCell id="S6N38EDpftqvQTbYP7FW-34" value="ServingWebsite" style="rounded=1;whiteSpace=wrap;html=1;fontSize=14;" vertex="1" parent="1">
          <mxGeometry x="296" y="794" width="135" height="60" as="geometry" />
        </mxCell>
        <mxCell id="S6N38EDpftqvQTbYP7FW-35" value="Nginx" style="rounded=1;whiteSpace=wrap;html=1;fontSize=14;" vertex="1" parent="1">
          <mxGeometry x="296" y="719" width="135" height="60" as="geometry" />
        </mxCell>
        <mxCell id="S6N38EDpftqvQTbYP7FW-37" style="edgeStyle=none;rounded=0;orthogonalLoop=1;jettySize=auto;html=1;exitX=1;exitY=0.5;exitDx=0;exitDy=0;fontSize=14;endArrow=none;endFill=0;" edge="1" parent="1" source="S6N38EDpftqvQTbYP7FW-36">
          <mxGeometry relative="1" as="geometry">
            <mxPoint x="294" y="897" as="targetPoint" />
          </mxGeometry>
        </mxCell>
        <mxCell id="S6N38EDpftqvQTbYP7FW-36" value="MySQL&lt;br&gt;wefe_serving" style="rounded=1;whiteSpace=wrap;html=1;fontSize=14;" vertex="1" parent="1">
          <mxGeometry x="138.5" y="858" width="88" height="76" as="geometry" />
        </mxCell>
        <mxCell id="S6N38EDpftqvQTbYP7FW-38" style="edgeStyle=none;rounded=0;orthogonalLoop=1;jettySize=auto;html=1;exitX=0;exitY=0.25;exitDx=0;exitDy=0;entryX=0;entryY=0.5;entryDx=0;entryDy=0;fontSize=14;endArrow=none;endFill=0;" edge="1" parent="1" source="S6N38EDpftqvQTbYP7FW-33" target="S6N38EDpftqvQTbYP7FW-33">
          <mxGeometry relative="1" as="geometry" />
        </mxCell>
        <mxCell id="S6N38EDpftqvQTbYP7FW-39" value="UnionService" style="rounded=1;whiteSpace=wrap;html=1;fontSize=14;" vertex="1" parent="1">
          <mxGeometry x="868" y="843" width="135" height="60" as="geometry" />
        </mxCell>
        <mxCell id="S6N38EDpftqvQTbYP7FW-40" style="edgeStyle=none;rounded=0;orthogonalLoop=1;jettySize=auto;html=1;exitX=0;exitY=0.25;exitDx=0;exitDy=0;entryX=0;entryY=0.5;entryDx=0;entryDy=0;fontSize=14;endArrow=none;endFill=0;" edge="1" parent="1" source="S6N38EDpftqvQTbYP7FW-39" target="S6N38EDpftqvQTbYP7FW-39">
          <mxGeometry relative="1" as="geometry" />
        </mxCell>
        <mxCell id="S6N38EDpftqvQTbYP7FW-41" value="ManangerService" style="rounded=1;whiteSpace=wrap;html=1;fontSize=14;" vertex="1" parent="1">
          <mxGeometry x="1022.25" y="843" width="135" height="60" as="geometry" />
        </mxCell>
        <mxCell id="S6N38EDpftqvQTbYP7FW-42" value="ManagerWebsite" style="rounded=1;whiteSpace=wrap;html=1;fontSize=14;" vertex="1" parent="1">
          <mxGeometry x="1022.25" y="771" width="135" height="60" as="geometry" />
        </mxCell>
        <mxCell id="S6N38EDpftqvQTbYP7FW-43" value="Nginx" style="rounded=1;whiteSpace=wrap;html=1;fontSize=14;" vertex="1" parent="1">
          <mxGeometry x="1022.25" y="696" width="135" height="60" as="geometry" />
        </mxCell>
        <mxCell id="S6N38EDpftqvQTbYP7FW-44" value="FISCO BCOS" style="rounded=1;whiteSpace=wrap;html=1;fontSize=14;" vertex="1" parent="1">
          <mxGeometry x="564" y="861.5" width="137" height="45.5" as="geometry" />
        </mxCell>
        <mxCell id="S6N38EDpftqvQTbYP7FW-46" value="BlockchainDataSync" style="rounded=1;whiteSpace=wrap;html=1;fontSize=14;" vertex="1" parent="1">
          <mxGeometry x="715" y="923.5" width="135" height="151.5" as="geometry" />
        </mxCell>
        <mxCell id="S6N38EDpftqvQTbYP7FW-47" value="MySQL&lt;br&gt;wefe_block01&lt;br&gt;wefe_block02&lt;br&gt;wefe_block03&lt;br&gt;wefe_block04" style="rounded=1;whiteSpace=wrap;html=1;fontSize=14;" vertex="1" parent="1">
          <mxGeometry x="569" y="924.5" width="127" height="150.5" as="geometry" />
        </mxCell>
        <mxCell id="nMTmoi4ZvUsDvFtxuwQk-2" value="MySQL" style="shape=datastore;whiteSpace=wrap;html=1;fontSize=14;" vertex="1" parent="1">
          <mxGeometry x="556.75" y="427" width="107.5" height="84" as="geometry" />
        </mxCell>
        <mxCell id="nMTmoi4ZvUsDvFtxuwQk-3" value="ClickHouse" style="shape=datastore;whiteSpace=wrap;html=1;fontSize=14;" vertex="1" parent="1">
          <mxGeometry x="558" y="564.5" width="105" height="94" as="geometry" />
        </mxCell>
        <mxCell id="nMTmoi4ZvUsDvFtxuwQk-4" value="MongoDB&lt;br&gt;Replica Set" style="shape=datastore;whiteSpace=wrap;html=1;fontSize=14;" vertex="1" parent="1">
          <mxGeometry x="978" y="974" width="100" height="82" as="geometry" />
        </mxCell>
        <mxCell id="nMTmoi4ZvUsDvFtxuwQk-6" value="" style="shape=singleArrow;whiteSpace=wrap;html=1;fontSize=14;fillColor=#f5f5f5;fontColor=#333333;strokeColor=none;" vertex="1" parent="1">
          <mxGeometry x="484.5" y="509" width="62" height="51" as="geometry" />
        </mxCell>
        <mxCell id="nMTmoi4ZvUsDvFtxuwQk-11" value="&lt;font style=&quot;font-size: 8px;&quot;&gt;Python&lt;/font&gt;" style="text;html=1;strokeColor=none;fillColor=none;align=center;verticalAlign=middle;whiteSpace=wrap;rounded=0;fontSize=14;" vertex="1" parent="1">
          <mxGeometry x="429" y="490" width="60" height="30" as="geometry" />
        </mxCell>
        <mxCell id="nMTmoi4ZvUsDvFtxuwQk-12" value="&lt;font style=&quot;font-size: 8px;&quot;&gt;JAVA&lt;/font&gt;" style="text;html=1;strokeColor=none;fillColor=none;align=center;verticalAlign=middle;whiteSpace=wrap;rounded=0;fontSize=14;" vertex="1" parent="1">
          <mxGeometry x="436" y="587" width="60" height="30" as="geometry" />
        </mxCell>
        <mxCell id="nMTmoi4ZvUsDvFtxuwQk-13" value="&lt;font style=&quot;font-size: 6px;&quot;&gt;JAVA&lt;/font&gt;" style="text;html=1;strokeColor=none;fillColor=none;align=center;verticalAlign=middle;whiteSpace=wrap;rounded=0;fontSize=14;" vertex="1" parent="1">
          <mxGeometry x="833" y="697.5" width="60" height="30" as="geometry" />
        </mxCell>
        <mxCell id="nMTmoi4ZvUsDvFtxuwQk-14" value="&lt;font style=&quot;font-size: 8px;&quot;&gt;JAVA&lt;/font&gt;" style="text;html=1;strokeColor=none;fillColor=none;align=center;verticalAlign=middle;whiteSpace=wrap;rounded=0;fontSize=14;" vertex="1" parent="1">
          <mxGeometry x="1147" y="520" width="60" height="30" as="geometry" />
        </mxCell>
        <mxCell id="nMTmoi4ZvUsDvFtxuwQk-15" value="&lt;font style=&quot;font-size: 6px;&quot;&gt;Nginx&lt;/font&gt;" style="text;html=1;align=center;verticalAlign=middle;resizable=0;points=[];autosize=1;strokeColor=none;fillColor=none;fontSize=6;" vertex="1" parent="1">
          <mxGeometry x="1148.25" y="451" width="49" height="26" as="geometry" />
        </mxCell>
        <mxCell id="nMTmoi4ZvUsDvFtxuwQk-16" value="" style="rounded=0;whiteSpace=wrap;html=1;fontSize=6;strokeColor=default;" vertex="1" parent="1">
          <mxGeometry x="665" y="379" width="120" height="60" as="geometry" />
        </mxCell>
      </root>
    </mxGraphModel>
  </diagram>
  <diagram name="单机部署 的副本" id="tKN4HtzzEIQqR7yRIt2b">
    <mxGraphModel dx="1378" dy="801" grid="0" gridSize="10" guides="1" tooltips="1" connect="1" arrows="1" fold="1" page="1" pageScale="1" pageWidth="2339" pageHeight="3300" math="0" shadow="0">
      <root>
        <mxCell id="ypAXPCdHG-jhm9GBV3Cv-0" />
        <mxCell id="ypAXPCdHG-jhm9GBV3Cv-1" parent="ypAXPCdHG-jhm9GBV3Cv-0" />
        <mxCell id="ypAXPCdHG-jhm9GBV3Cv-2" value="&lt;font style=&quot;font-size: 14px;&quot;&gt;计算服务&lt;br&gt;机器要求：≥ 16C32G，磁盘空间 ≥ 100G&lt;/font&gt;" style="text;html=1;align=center;verticalAlign=middle;resizable=0;points=[];autosize=1;strokeColor=none;fillColor=none;" vertex="1" parent="ypAXPCdHG-jhm9GBV3Cv-1">
          <mxGeometry x="47" y="293" width="271" height="46" as="geometry" />
        </mxCell>
        <mxCell id="ypAXPCdHG-jhm9GBV3Cv-3" style="edgeStyle=none;rounded=0;orthogonalLoop=1;jettySize=auto;html=1;exitX=1;exitY=0.5;exitDx=0;exitDy=0;entryX=0;entryY=0.75;entryDx=0;entryDy=0;fontSize=14;endArrow=none;endFill=0;" edge="1" parent="ypAXPCdHG-jhm9GBV3Cv-1" source="ypAXPCdHG-jhm9GBV3Cv-6" target="ypAXPCdHG-jhm9GBV3Cv-13">
          <mxGeometry relative="1" as="geometry" />
        </mxCell>
        <mxCell id="ypAXPCdHG-jhm9GBV3Cv-4" style="edgeStyle=none;rounded=0;orthogonalLoop=1;jettySize=auto;html=1;exitX=1;exitY=0.5;exitDx=0;exitDy=0;entryX=0;entryY=0.5;entryDx=0;entryDy=0;fontSize=14;endArrow=none;endFill=0;" edge="1" parent="ypAXPCdHG-jhm9GBV3Cv-1" source="ypAXPCdHG-jhm9GBV3Cv-6" target="ypAXPCdHG-jhm9GBV3Cv-14">
          <mxGeometry relative="1" as="geometry" />
        </mxCell>
        <mxCell id="ypAXPCdHG-jhm9GBV3Cv-5" style="edgeStyle=none;rounded=0;orthogonalLoop=1;jettySize=auto;html=1;exitX=0;exitY=0.5;exitDx=0;exitDy=0;entryX=1;entryY=0.5;entryDx=0;entryDy=0;fontSize=14;endArrow=none;endFill=0;" edge="1" parent="ypAXPCdHG-jhm9GBV3Cv-1" source="ypAXPCdHG-jhm9GBV3Cv-6" target="ypAXPCdHG-jhm9GBV3Cv-12">
          <mxGeometry relative="1" as="geometry" />
        </mxCell>
        <mxCell id="ypAXPCdHG-jhm9GBV3Cv-6" value="MySQL&lt;br&gt;wefe_board" style="rounded=1;whiteSpace=wrap;html=1;fontSize=14;" vertex="1" parent="ypAXPCdHG-jhm9GBV3Cv-1">
          <mxGeometry x="525" y="432" width="88" height="76" as="geometry" />
        </mxCell>
        <mxCell id="ypAXPCdHG-jhm9GBV3Cv-7" style="edgeStyle=none;rounded=0;orthogonalLoop=1;jettySize=auto;html=1;exitX=1;exitY=0.5;exitDx=0;exitDy=0;fontSize=14;endArrow=none;endFill=0;entryX=0;entryY=0.75;entryDx=0;entryDy=0;" edge="1" parent="ypAXPCdHG-jhm9GBV3Cv-1" source="ypAXPCdHG-jhm9GBV3Cv-10" target="ypAXPCdHG-jhm9GBV3Cv-13">
          <mxGeometry relative="1" as="geometry">
            <mxPoint x="778" y="487" as="targetPoint" />
          </mxGeometry>
        </mxCell>
        <mxCell id="ypAXPCdHG-jhm9GBV3Cv-8" style="edgeStyle=none;rounded=0;orthogonalLoop=1;jettySize=auto;html=1;exitX=1;exitY=0.5;exitDx=0;exitDy=0;entryX=0;entryY=0.5;entryDx=0;entryDy=0;fontSize=14;endArrow=none;endFill=0;" edge="1" parent="ypAXPCdHG-jhm9GBV3Cv-1" source="ypAXPCdHG-jhm9GBV3Cv-10" target="ypAXPCdHG-jhm9GBV3Cv-14">
          <mxGeometry relative="1" as="geometry" />
        </mxCell>
        <mxCell id="ypAXPCdHG-jhm9GBV3Cv-9" style="edgeStyle=none;rounded=0;orthogonalLoop=1;jettySize=auto;html=1;exitX=0;exitY=0.5;exitDx=0;exitDy=0;fontSize=14;endArrow=none;endFill=0;" edge="1" parent="ypAXPCdHG-jhm9GBV3Cv-1" source="ypAXPCdHG-jhm9GBV3Cv-10">
          <mxGeometry relative="1" as="geometry">
            <mxPoint x="435" y="499" as="targetPoint" />
          </mxGeometry>
        </mxCell>
        <mxCell id="ypAXPCdHG-jhm9GBV3Cv-10" value="ClickHouse" style="rounded=1;whiteSpace=wrap;html=1;fontSize=14;" vertex="1" parent="ypAXPCdHG-jhm9GBV3Cv-1">
          <mxGeometry x="525" y="514" width="88" height="77" as="geometry" />
        </mxCell>
        <mxCell id="ypAXPCdHG-jhm9GBV3Cv-11" value="Spark" style="rounded=1;whiteSpace=wrap;html=1;fontSize=14;" vertex="1" parent="ypAXPCdHG-jhm9GBV3Cv-1">
          <mxGeometry x="189" y="542" width="249" height="60" as="geometry" />
        </mxCell>
        <mxCell id="ypAXPCdHG-jhm9GBV3Cv-12" value="PythonProject (flow, kernel)" style="rounded=1;whiteSpace=wrap;html=1;fontSize=14;" vertex="1" parent="ypAXPCdHG-jhm9GBV3Cv-1">
          <mxGeometry x="189" y="470" width="249" height="60" as="geometry" />
        </mxCell>
        <mxCell id="ypAXPCdHG-jhm9GBV3Cv-13" value="BoardService" style="rounded=1;whiteSpace=wrap;html=1;fontSize=14;" vertex="1" parent="ypAXPCdHG-jhm9GBV3Cv-1">
          <mxGeometry x="717" y="426" width="135" height="60" as="geometry" />
        </mxCell>
        <mxCell id="ypAXPCdHG-jhm9GBV3Cv-14" value="GatewayService" style="rounded=1;whiteSpace=wrap;html=1;fontSize=14;" vertex="1" parent="ypAXPCdHG-jhm9GBV3Cv-1">
          <mxGeometry x="719" y="550" width="135" height="60" as="geometry" />
        </mxCell>
        <mxCell id="ypAXPCdHG-jhm9GBV3Cv-15" value="" style="endArrow=none;dashed=1;html=1;dashPattern=1 3;strokeWidth=2;rounded=0;fontSize=14;" edge="1" parent="ypAXPCdHG-jhm9GBV3Cv-1">
          <mxGeometry width="50" height="50" relative="1" as="geometry">
            <mxPoint x="481" y="1035" as="sourcePoint" />
            <mxPoint x="481" y="274" as="targetPoint" />
          </mxGeometry>
        </mxCell>
        <mxCell id="ypAXPCdHG-jhm9GBV3Cv-16" value="BoardWebsite" style="rounded=1;whiteSpace=wrap;html=1;fontSize=14;" vertex="1" parent="ypAXPCdHG-jhm9GBV3Cv-1">
          <mxGeometry x="719" y="351" width="135" height="60" as="geometry" />
        </mxCell>
        <mxCell id="ypAXPCdHG-jhm9GBV3Cv-17" value="Nginx" style="rounded=1;whiteSpace=wrap;html=1;fontSize=14;" vertex="1" parent="ypAXPCdHG-jhm9GBV3Cv-1">
          <mxGeometry x="719" y="276" width="135" height="60" as="geometry" />
        </mxCell>
        <mxCell id="ypAXPCdHG-jhm9GBV3Cv-18" value="系统：CentOS&amp;nbsp;7.5；依赖环境：Python&amp;nbsp;3.7，&amp;nbsp;Java&amp;nbsp;1.8，Spark&amp;nbsp;3.1.3；应用软件：PythonProject（flow、kernel）" style="text;html=1;align=center;verticalAlign=middle;resizable=0;points=[];autosize=1;strokeColor=none;fillColor=none;fontSize=14;" vertex="1" parent="ypAXPCdHG-jhm9GBV3Cv-1">
          <mxGeometry x="2376" y="351" width="717" height="29" as="geometry" />
        </mxCell>
        <mxCell id="ypAXPCdHG-jhm9GBV3Cv-19" value="" style="edgeStyle=none;rounded=0;orthogonalLoop=1;jettySize=auto;html=1;fontSize=14;endArrow=none;endFill=0;" edge="1" parent="ypAXPCdHG-jhm9GBV3Cv-1" source="ypAXPCdHG-jhm9GBV3Cv-20" target="ypAXPCdHG-jhm9GBV3Cv-23">
          <mxGeometry relative="1" as="geometry" />
        </mxCell>
        <mxCell id="ypAXPCdHG-jhm9GBV3Cv-20" value="FusionService" style="rounded=1;whiteSpace=wrap;html=1;fontSize=14;" vertex="1" parent="ypAXPCdHG-jhm9GBV3Cv-1">
          <mxGeometry x="885" y="426" width="135" height="60" as="geometry" />
        </mxCell>
        <mxCell id="ypAXPCdHG-jhm9GBV3Cv-21" value="FusionWebsite" style="rounded=1;whiteSpace=wrap;html=1;fontSize=14;" vertex="1" parent="ypAXPCdHG-jhm9GBV3Cv-1">
          <mxGeometry x="887" y="351" width="135" height="60" as="geometry" />
        </mxCell>
        <mxCell id="ypAXPCdHG-jhm9GBV3Cv-22" value="Nginx" style="rounded=1;whiteSpace=wrap;html=1;fontSize=14;" vertex="1" parent="ypAXPCdHG-jhm9GBV3Cv-1">
          <mxGeometry x="887" y="276" width="135" height="60" as="geometry" />
        </mxCell>
        <mxCell id="ypAXPCdHG-jhm9GBV3Cv-23" value="MySQL&lt;br&gt;wefe_fusion" style="rounded=1;whiteSpace=wrap;html=1;fontSize=14;" vertex="1" parent="ypAXPCdHG-jhm9GBV3Cv-1">
          <mxGeometry x="1079" y="418" width="88" height="76" as="geometry" />
        </mxCell>
        <mxCell id="ypAXPCdHG-jhm9GBV3Cv-24" value="" style="endArrow=none;dashed=1;html=1;dashPattern=1 3;strokeWidth=2;rounded=0;fontSize=14;" edge="1" parent="ypAXPCdHG-jhm9GBV3Cv-1">
          <mxGeometry width="50" height="50" relative="1" as="geometry">
            <mxPoint x="1293" y="661" as="sourcePoint" />
            <mxPoint x="61" y="661" as="targetPoint" />
          </mxGeometry>
        </mxCell>
        <mxCell id="ypAXPCdHG-jhm9GBV3Cv-25" value="ServingService" style="rounded=1;whiteSpace=wrap;html=1;fontSize=14;" vertex="1" parent="ypAXPCdHG-jhm9GBV3Cv-1">
          <mxGeometry x="294" y="869" width="135" height="60" as="geometry" />
        </mxCell>
        <mxCell id="ypAXPCdHG-jhm9GBV3Cv-26" value="ServingWebsite" style="rounded=1;whiteSpace=wrap;html=1;fontSize=14;" vertex="1" parent="ypAXPCdHG-jhm9GBV3Cv-1">
          <mxGeometry x="296" y="794" width="135" height="60" as="geometry" />
        </mxCell>
        <mxCell id="ypAXPCdHG-jhm9GBV3Cv-27" value="Nginx" style="rounded=1;whiteSpace=wrap;html=1;fontSize=14;" vertex="1" parent="ypAXPCdHG-jhm9GBV3Cv-1">
          <mxGeometry x="296" y="719" width="135" height="60" as="geometry" />
        </mxCell>
        <mxCell id="ypAXPCdHG-jhm9GBV3Cv-28" style="edgeStyle=none;rounded=0;orthogonalLoop=1;jettySize=auto;html=1;exitX=1;exitY=0.5;exitDx=0;exitDy=0;fontSize=14;endArrow=none;endFill=0;" edge="1" parent="ypAXPCdHG-jhm9GBV3Cv-1" source="ypAXPCdHG-jhm9GBV3Cv-29">
          <mxGeometry relative="1" as="geometry">
            <mxPoint x="294" y="897" as="targetPoint" />
          </mxGeometry>
        </mxCell>
        <mxCell id="ypAXPCdHG-jhm9GBV3Cv-29" value="MySQL&lt;br&gt;wefe_serving" style="rounded=1;whiteSpace=wrap;html=1;fontSize=14;" vertex="1" parent="ypAXPCdHG-jhm9GBV3Cv-1">
          <mxGeometry x="138.5" y="858" width="88" height="76" as="geometry" />
        </mxCell>
        <mxCell id="ypAXPCdHG-jhm9GBV3Cv-30" style="edgeStyle=none;rounded=0;orthogonalLoop=1;jettySize=auto;html=1;exitX=0;exitY=0.25;exitDx=0;exitDy=0;entryX=0;entryY=0.5;entryDx=0;entryDy=0;fontSize=14;endArrow=none;endFill=0;" edge="1" parent="ypAXPCdHG-jhm9GBV3Cv-1" source="ypAXPCdHG-jhm9GBV3Cv-25" target="ypAXPCdHG-jhm9GBV3Cv-25">
          <mxGeometry relative="1" as="geometry" />
        </mxCell>
        <mxCell id="ypAXPCdHG-jhm9GBV3Cv-31" value="UnionService" style="rounded=1;whiteSpace=wrap;html=1;fontSize=14;" vertex="1" parent="ypAXPCdHG-jhm9GBV3Cv-1">
          <mxGeometry x="846" y="939.5" width="135" height="60" as="geometry" />
        </mxCell>
        <mxCell id="ypAXPCdHG-jhm9GBV3Cv-32" style="edgeStyle=none;rounded=0;orthogonalLoop=1;jettySize=auto;html=1;exitX=0;exitY=0.25;exitDx=0;exitDy=0;entryX=0;entryY=0.5;entryDx=0;entryDy=0;fontSize=14;endArrow=none;endFill=0;" edge="1" parent="ypAXPCdHG-jhm9GBV3Cv-1" source="ypAXPCdHG-jhm9GBV3Cv-31" target="ypAXPCdHG-jhm9GBV3Cv-31">
          <mxGeometry relative="1" as="geometry" />
        </mxCell>
        <mxCell id="ypAXPCdHG-jhm9GBV3Cv-33" value="ManangerService" style="rounded=1;whiteSpace=wrap;html=1;fontSize=14;" vertex="1" parent="ypAXPCdHG-jhm9GBV3Cv-1">
          <mxGeometry x="1000.25" y="939.5" width="135" height="60" as="geometry" />
        </mxCell>
        <mxCell id="ypAXPCdHG-jhm9GBV3Cv-34" value="ManagerWebsite" style="rounded=1;whiteSpace=wrap;html=1;fontSize=14;" vertex="1" parent="ypAXPCdHG-jhm9GBV3Cv-1">
          <mxGeometry x="1000.25" y="867.5" width="135" height="60" as="geometry" />
        </mxCell>
        <mxCell id="ypAXPCdHG-jhm9GBV3Cv-35" value="Nginx" style="rounded=1;whiteSpace=wrap;html=1;fontSize=14;" vertex="1" parent="ypAXPCdHG-jhm9GBV3Cv-1">
          <mxGeometry x="1000.25" y="792.5" width="135" height="60" as="geometry" />
        </mxCell>
        <mxCell id="ypAXPCdHG-jhm9GBV3Cv-36" value="FISCO BCOS" style="rounded=1;whiteSpace=wrap;html=1;fontSize=14;" vertex="1" parent="ypAXPCdHG-jhm9GBV3Cv-1">
          <mxGeometry x="542" y="992.5" width="137" height="57" as="geometry" />
        </mxCell>
        <mxCell id="ypAXPCdHG-jhm9GBV3Cv-37" value="BlockchainDataSync" style="rounded=1;whiteSpace=wrap;html=1;fontSize=14;" vertex="1" parent="ypAXPCdHG-jhm9GBV3Cv-1">
          <mxGeometry x="693" y="1111.5" width="135" height="60" as="geometry" />
        </mxCell>
        <mxCell id="ypAXPCdHG-jhm9GBV3Cv-38" value="MySQL&lt;br&gt;wefe_block01&lt;br&gt;wefe_block02&lt;br&gt;wefe_block03&lt;br&gt;wefe_block04" style="rounded=1;whiteSpace=wrap;html=1;fontSize=14;" vertex="1" parent="ypAXPCdHG-jhm9GBV3Cv-1">
          <mxGeometry x="547" y="1060.5" width="127" height="111" as="geometry" />
        </mxCell>
        <mxCell id="ypAXPCdHG-jhm9GBV3Cv-39" value="MongoDB&lt;br&gt;&lt;span style=&quot;color: rgb(64, 64, 64); font-family: -apple-system, &amp;quot;system-ui&amp;quot;, &amp;quot;Apple Color Emoji&amp;quot;, &amp;quot;Segoe UI Emoji&amp;quot;, &amp;quot;Segoe UI Symbol&amp;quot;, &amp;quot;Segoe UI&amp;quot;, &amp;quot;PingFang SC&amp;quot;, &amp;quot;Hiragino Sans GB&amp;quot;, &amp;quot;Microsoft YaHei&amp;quot;, &amp;quot;Helvetica Neue&amp;quot;, Helvetica, Arial, sans-serif; font-size: 16px; text-align: left; background-color: rgb(255, 255, 255);&quot;&gt;primary&lt;/span&gt;" style="rounded=1;whiteSpace=wrap;html=1;fontSize=14;" vertex="1" parent="ypAXPCdHG-jhm9GBV3Cv-1">
          <mxGeometry x="848" y="1015" width="290" height="76" as="geometry" />
        </mxCell>
        <mxCell id="ypAXPCdHG-jhm9GBV3Cv-40" value="MongoDB&lt;br&gt;&lt;span style=&quot;color: rgb(64, 64, 64); font-family: -apple-system, &amp;quot;system-ui&amp;quot;, &amp;quot;Apple Color Emoji&amp;quot;, &amp;quot;Segoe UI Emoji&amp;quot;, &amp;quot;Segoe UI Symbol&amp;quot;, &amp;quot;Segoe UI&amp;quot;, &amp;quot;PingFang SC&amp;quot;, &amp;quot;Hiragino Sans GB&amp;quot;, &amp;quot;Microsoft YaHei&amp;quot;, &amp;quot;Helvetica Neue&amp;quot;, Helvetica, Arial, sans-serif; font-size: 16px; text-align: left; background-color: rgb(255, 255, 255);&quot;&gt;secondary&lt;/span&gt;" style="rounded=1;whiteSpace=wrap;html=1;fontSize=14;" vertex="1" parent="ypAXPCdHG-jhm9GBV3Cv-1">
          <mxGeometry x="854" y="1104" width="130" height="75" as="geometry" />
        </mxCell>
        <mxCell id="ypAXPCdHG-jhm9GBV3Cv-41" value="MongoDB&lt;br&gt;&lt;span style=&quot;color: rgb(64, 64, 64); font-family: -apple-system, &amp;quot;system-ui&amp;quot;, &amp;quot;Apple Color Emoji&amp;quot;, &amp;quot;Segoe UI Emoji&amp;quot;, &amp;quot;Segoe UI Symbol&amp;quot;, &amp;quot;Segoe UI&amp;quot;, &amp;quot;PingFang SC&amp;quot;, &amp;quot;Hiragino Sans GB&amp;quot;, &amp;quot;Microsoft YaHei&amp;quot;, &amp;quot;Helvetica Neue&amp;quot;, Helvetica, Arial, sans-serif; font-size: 16px; text-align: left; background-color: rgb(255, 255, 255);&quot;&gt;secondary&lt;/span&gt;" style="rounded=1;whiteSpace=wrap;html=1;fontSize=14;" vertex="1" parent="ypAXPCdHG-jhm9GBV3Cv-1">
          <mxGeometry x="1000.25" y="1103" width="136.75" height="76" as="geometry" />
        </mxCell>
      </root>
    </mxGraphModel>
  </diagram>
</mxfile>
